<svg xmlns="http://www.w3.org/2000/svg" version="1.1" xmlns:xlink="http://www.w3.org/1999/xlink" xmlns:svgjs="http://svgjs.dev/svgjs" viewBox="0 0 800 800"><defs><filter id="llleaves-blur-2" x="-100%" y="-100%" width="400%" height="400%"><feGaussianBlur in="SourceGraphic" stdDeviation="2"></feGaussianBlur></filter><filter id="llleaves-blur-3" x="-100%" y="-100%" width="400%" height="400%"><feGaussianBlur in="SourceGraphic" stdDeviation="4"></feGaussianBlur></filter><filter id="llleaves-blur-4" x="-100%" y="-100%" width="400%" height="400%"><feGaussianBlur in="SourceGraphic" stdDeviation="12"></feGaussianBlur></filter></defs><g fill="hsl(231, 100%, 64%)"><path d="M309 722H359C387 722 409 744 409 772H359C331 772 309 750 309 722Z " transform="matrix(-0.0967184981059812,0.25196030176949974,-0.25196030176949974,-0.0967184981059812,581.9362862418634,728.7949697499175)" filter="url(#llleaves-blur-3)" opacity="0.41"></path><path d="M553 37H603C631 37 653 59 653 87H603C575 87 553 65 553 37Z " transform="matrix(-0.0695916314125149,-0.4951701870839322,0.4951701870839322,-0.0695916314125149,614.2632021425427,364.902303959187)" opacity="0.77"></path><path d="M361 539H411C439 539 461 561 461 589H411C383 589 361 567 361 539Z " transform="matrix(-0.06733260018557363,0.2512886848982824,-0.2512886848982824,-0.06733260018557363,580.400516958902,498.6959370114695)" filter="url(#llleaves-blur-3)" opacity="0.40"></path><path d="M479 517H529C557 517 579 539 579 567H529C501 567 479 545 479 517Z " transform="matrix(-0.23545361632847586,0.2046767060452142,-0.2046767060452142,-0.23545361632847586,764.4897377142698,561.3418825521156)" filter="url(#llleaves-blur-2)" opacity="0.48"></path><path d="M161 720H211C239 720 261 742 261 770H211C183 770 161 748 161 720Z " transform="matrix(-0.1721120970099204,-0.4483673418220617,0.4483673418220617,-0.1721120970099204,-86.7180171883428,967.8290213968456)" opacity="0.74"></path><path d="M355 133H405C433 133 455 155 455 183H405C377 183 355 161 355 133Z " transform="matrix(-0.26287846513545426,0.18406948292084357,-0.18406948292084357,-0.26287846513545426,540.5487566813522,124.98665690846012)" filter="url(#llleaves-blur-2)" opacity="0.49"></path><path d="M682 29H732C760 29 782 51 782 79H732C704 79 682 57 682 29Z " transform="matrix(-0.33812064623857047,-0.2738047006175719,0.2738047006175719,-0.33812064623857047,964.7188592132848,272.6835557489454)" opacity="0.67"></path><path d="M5 526H55C83 526 105 548 105 576H55C27 576 5 554 5 526Z " transform="matrix(0.41126273696821425,-0.41126273696821447,0.41126273696821447,0.41126273696821425,-194.22521860273793,347.01368246376575)" opacity="0.89"></path><path d="M699 137H749C777 137 799 159 799 187H749C721 187 699 165 699 137Z " transform="matrix(-0.3268534516844456,-0.2943001697893834,0.2943001697893834,-0.3268534516844456,946.1366078057696,435.3810863451283)" opacity="0.68"></path><path d="M137 397H187C215 397 237 419 237 447H187C159 447 137 425 137 397Z " transform="matrix(-0.03534804451011884,-0.5055005873666057,0.5055005873666057,-0.03534804451011884,-19.71116354531543,531.4454846208255)" opacity="0.78"></path><path d="M97 618H147C175 618 197 640 197 668H147C119 668 97 646 97 618Z " transform="matrix(0.3335268227452141,-0.45906028881870675,0.45906028881870675,0.3335268227452141,-197.20420865397494,496.02411543117717)" opacity="0.87"></path><path d="M130 272H180C208 272 230 294 230 322H180C152 322 130 300 130 272Z " transform="matrix(0.11029912420716043,-0.5189165807941127,0.5189165807941127,0.11029912420716043,6.027933146859624,357.64614465341367)" opacity="0.82"></path><path d="M691 368H741C769 368 791 390 791 418H741C713 418 691 396 691 368Z " transform="matrix(-0.3667591487105281,-0.2032979158333578,0.2032979158333578,-0.3667591487105281,932.8724482719917,687.7801010757557)" opacity="0.64"></path><path d="M439 282H489C517 282 539 304 539 332H489C461 332 439 310 439 282Z " transform="matrix(-0.17677582199893527,0.23458943917137834,-0.23458943917137834,-0.17677582199893527,647.4623347830925,246.5559415988691)" filter="url(#llleaves-blur-3)" opacity="0.45"></path><path d="M226 169H276C304 169 326 191 326 219H276C248 219 226 197 226 169Z " transform="matrix(-0.3633612844825481,0.03819080993069223,-0.03819080993069223,-0.3633612844825481,383.69673164373756,253.95142564874325)" filter="url(#llleaves-blur-2)" opacity="0.56"></path><path d="M570 286H620C648 286 670 308 670 336H620C592 336 570 314 570 286Z " transform="matrix(-0.36190251252149275,0.04443604108960944,-0.04443604108960944,-0.36190251252149275,858.1991665421941,396.0013359186264)" filter="url(#llleaves-blur-2)" opacity="0.56"></path><path d="M3 219H53C81 219 103 241 103 269H53C25 269 3 247 3 219Z " transform="matrix(0.41126273696821425,-0.41126273696821447,0.41126273696821447,0.41126273696821425,-69.14503287955968,165.4488172390711)" opacity="0.89"></path></g><g fill="none" stroke-width="3" stroke="hsl(231, 100%, 64%)"><path d="M138 510H188C216 510 238 532 238 560H188C160 560 138 538 138 510Z " transform="matrix(-0.03534804451011884,-0.5055005873666057,0.5055005873666057,-0.03534804451011884,-75.79738187323176,648.9453142378354)" opacity="0.78"></path><path d="M593 429H643C671 429 693 451 693 479H643C615 479 593 457 593 429Z " transform="matrix(-0.37274472726734914,0.006506283416102307,-0.006506283416102307,-0.37274472726734914,885.628712303816,619.0425659428226)" filter="url(#llleaves-blur-2)" opacity="0.57"></path><path d="M12 373H62C90 373 112 395 112 423H62C34 423 12 401 12 373Z " transform="matrix(0.41126273696821425,-0.41126273696821447,0.41126273696821447,0.41126273696821425,-127.18085900537864,259.81572037868)" opacity="0.89"></path><path d="M488 734H538C566 734 588 756 588 784H538C510 784 488 762 488 734Z " transform="matrix(-0.26305122376269313,0.18419044981392702,-0.18419044981392702,-0.26305122376269313,819.3221097930993,859.5614168359914)" filter="url(#llleaves-blur-2)" opacity="0.49"></path><path d="M700 495H750C778 495 800 517 800 545H750C722 545 700 523 700 495Z " transform="matrix(-0.3667591487105281,-0.2032979158333578,0.2032979158333578,-0.3667591487105281,919.3544452995499,863.1881942044929)" opacity="0.64"></path><path d="M599 550H649C677 550 699 572 699 600H649C621 600 599 578 599 550Z " transform="matrix(-0.37274472726734914,0.006506283416102307,-0.006506283416102307,-0.37274472726734914,894.6524409607684,785.1056402416755)" filter="url(#llleaves-blur-2)" opacity="0.57"></path><path d="M404 649H454C482 649 504 671 504 699H454C426 699 404 677 404 649Z " transform="matrix(-0.12128740571004448,0.24867603386249082,-0.24867603386249082,-0.12128740571004448,676.6721290156789,642.8487920749991)" filter="url(#llleaves-blur-3)" opacity="0.42"></path><path d="M662 727H712C740 727 762 749 762 777H712C684 777 662 755 662 727Z " transform="matrix(-0.38221248045528544,-0.1316063111646913,0.1316063111646913,-0.38221248045528544,885.1673400883153,1133.1274788516348)" opacity="0.62"></path><path d="M10 703H60C88 703 110 725 110 753H60C32 753 10 731 10 703Z " transform="matrix(0.41126273696821425,-0.41126273696821447,0.41126273696821447,0.41126273696821425,-264.07503673095295,453.2764917052329)" opacity="0.89"></path></g></svg>