<svg xmlns="http://www.w3.org/2000/svg" version="1.1" xmlns:xlink="http://www.w3.org/1999/xlink" xmlns:svgjs="http://svgjs.dev/svgjs" viewBox="0 0 800 800"><defs><filter id="llleaves-blur-2" x="-100%" y="-100%" width="400%" height="400%"><feGaussianBlur in="SourceGraphic" stdDeviation="2"></feGaussianBlur></filter><filter id="llleaves-blur-3" x="-100%" y="-100%" width="400%" height="400%"><feGaussianBlur in="SourceGraphic" stdDeviation="4"></feGaussianBlur></filter><filter id="llleaves-blur-4" x="-100%" y="-100%" width="400%" height="400%"><feGaussianBlur in="SourceGraphic" stdDeviation="12"></feGaussianBlur></filter></defs><g fill="hsl(231, 100%, 64%)"><path d="M686 441H736C764 441 786 463 786 491H736C708 491 686 469 686 441Z " transform="matrix(-0.3171700811539471,0.12814503083645976,-0.12814503083645976,-0.3171700811539471,1029.1527640990955,519.486515122105)" filter="url(#llleaves-blur-2)" opacity="0.52"></path><path d="M256 708H306C334 708 356 730 356 758H306C278 758 256 736 256 708Z " transform="matrix(-0.3815018044278981,-0.13136160578435885,0.13136160578435885,-0.3815018044278981,326.45149511500176,1052.8374740156632)" opacity="0.62"></path><path d="M554 401H604C632 401 654 423 654 451H604C576 451 554 429 554 401Z " transform="matrix(-0.3615475908015874,0.04439246218207596,-0.04439246218207596,-0.3615475908015874,841.2859337337231,553.2062265235024)" filter="url(#llleaves-blur-2)" opacity="0.56"></path><path d="M17 458H67C95 458 117 480 117 508H67C39 508 17 486 17 458Z " transform="matrix(-0.3055523328188484,0.14248139276055394,-0.14248139276055394,-0.3055523328188484,156.2905190022104,621.0355234365467)" filter="url(#llleaves-blur-2)" opacity="0.52"></path><path d="M168 35H218C246 35 268 57 268 85H218C190 85 168 63 168 35Z " transform="matrix(0.012184558649466335,0.23249522907010758,-0.23249522907010758,0.012184558649466335,229.29347995862278,8.584966543748571)" filter="url(#llleaves-blur-3)" opacity="0.36"></path><path d="M392 265H442C470 265 492 287 492 315H442C414 315 392 293 392 265Z " transform="matrix(-0.3841868160390188,-0.08166142865620703,0.08166142865620703,-0.3841868160390188,588.1287583789463,437.5085281173589)" filter="url(#llleaves-blur-2)" opacity="0.60"></path><path d="M10 191H60C88 191 110 213 110 241H60C32 241 10 219 10 191Z " transform="matrix(-0.3055523328188484,0.14248139276055394,-0.14248139276055394,-0.3055523328188484,109.10912080541056,273.450420323238)" filter="url(#llleaves-blur-2)" opacity="0.52"></path><path d="M137 700H187C215 700 237 722 237 750H187C159 750 137 728 137 700Z " transform="matrix(-0.2939377505166947,0.15628947427108542,-0.15628947427108542,-0.2939377505166947,355.27622819315883,908.8787374359107)" filter="url(#llleaves-blur-2)" opacity="0.51"></path><path d="M681 340H731C759 340 781 362 781 390H731C703 390 681 368 681 340Z " transform="matrix(-0.3331154128149051,0.10184360216428401,-0.10184360216428401,-0.3331154128149051,1011.6802815576593,412.13945249534873)" filter="url(#llleaves-blur-2)" opacity="0.53"></path><path d="M531 166H581C609 166 631 188 631 216H581C553 216 531 194 531 166Z " transform="matrix(-0.36214914542924126,0.044466323802891554,-0.044466323802891554,-0.36214914542924126,799.9017213407415,234.3355526475051)" filter="url(#llleaves-blur-2)" opacity="0.56"></path><path d="M473 611H523C551 611 573 633 573 661H523C495 661 473 639 473 611Z " transform="matrix(-0.36837802818942983,0.02575950110132352,-0.02575950110132352,-0.36837802818942983,732.0447514435134,856.8162068524853)" filter="url(#llleaves-blur-2)" opacity="0.57"></path><path d="M534 286H584C612 286 634 308 634 336H584C556 336 534 314 534 286Z " transform="matrix(-0.3617579288943317,0.04441828845243473,-0.04441828845243473,-0.3617579288943317,809.0807181829969,397.5664354299152)" filter="url(#llleaves-blur-2)" opacity="0.56"></path></g><g fill="none" stroke-width="3" stroke="hsl(231, 100%, 64%)"><path d="M274 336H324C352 336 374 358 374 386H324C296 386 274 364 274 336Z " transform="matrix(-0.378998986142423,-0.15312552996647405,0.15312552996647405,-0.378998986142423,391.5173551922479,547.4313057065524)" opacity="0.63"></path><path d="M393 148H443C471 148 493 170 493 198H443C415 198 393 176 393 148Z " transform="matrix(-0.38159713666760314,-0.1388899992282195,0.1388899992282195,-0.38159713666760314,588.0195616772662,300.5445743015966)" opacity="0.62"></path><path d="M678 137H728C756 137 778 159 778 187H728C700 187 678 165 678 137Z " transform="matrix(-0.36458368967146076,0.03831928989325769,-0.03831928989325769,-0.36458368967146076,999.6246510435312,193.16611468448505)" filter="url(#llleaves-blur-2)" opacity="0.56"></path><path d="M419 381H469C497 381 519 403 519 431H469C441 431 419 409 419 381Z " transform="matrix(-0.3802150501794385,-0.02658722631198979,0.02658722631198979,-0.3802150501794385,636.5264446514889,572.8367195131752)" filter="url(#llleaves-blur-2)" opacity="0.58"></path><path d="M571 511H621C649 511 671 533 671 561H621C593 561 571 539 571 511Z " transform="matrix(-0.3612727754663984,0.044358719101815394,-0.044358719101815394,-0.3612727754663984,869.1266670032064,702.0954430877622)" filter="url(#llleaves-blur-2)" opacity="0.56"></path><path d="M307 465H357C385 465 407 487 407 515H357C329 515 307 493 307 465Z " transform="matrix(-0.3741993763173078,-0.17449203485358475,0.17449203485358475,-0.3741993763173078,405.08808026702235,735.6513508382105)" opacity="0.63"></path><path d="M690 29H740C768 29 790 51 790 79H740C712 79 690 57 690 29Z " transform="matrix(-0.3663935632035721,-0.20309526847777212,0.20309526847777212,-0.3663935632035721,1000.1640922728438,224.07575108654427)" opacity="0.64"></path><path d="M261 188H311C339 188 361 210 361 238H311C283 238 261 216 261 188Z " transform="matrix(-0.3815018044278981,-0.13136160578435885,0.13136160578435885,-0.3815018044278981,401.66703914500795,335.1133437420779)" opacity="0.62"></path><path d="M566 40H616C644 40 666 62 666 90H616C588 90 566 68 566 40Z " transform="matrix(0.11984337542942222,-0.5190986893653211,0.5190986893653211,0.11984337542942222,508.43506592673003,376.97497324612533)" opacity="0.82"></path><path d="M20 44H70C98 44 120 66 120 94H70C42 94 20 72 20 44Z " transform="matrix(-0.12146292467970617,0.24903590108025817,-0.24903590108025817,-0.12146292467970617,95.68588190211725,59.94842872728165)" filter="url(#llleaves-blur-3)" opacity="0.42"></path></g></svg>