<svg xmlns="http://www.w3.org/2000/svg" version="1.1" xmlns:xlink="http://www.w3.org/1999/xlink" xmlns:svgjs="http://svgjs.dev/svgjs" viewBox="0 0 800 800"><defs><filter id="llleaves-blur-2" x="-100%" y="-100%" width="400%" height="400%"><feGaussianBlur in="SourceGraphic" stdDeviation="2"></feGaussianBlur></filter><filter id="llleaves-blur-3" x="-100%" y="-100%" width="400%" height="400%"><feGaussianBlur in="SourceGraphic" stdDeviation="4"></feGaussianBlur></filter><filter id="llleaves-blur-4" x="-100%" y="-100%" width="400%" height="400%"><feGaussianBlur in="SourceGraphic" stdDeviation="12"></feGaussianBlur></filter></defs><g fill="hsl(231, 100%, 64%)"><path d="M11 504H61C89 504 111 526 111 554H61C33 554 11 532 11 504Z " transform="matrix(0.06807718887340317,0.19771051244772891,-0.19771051244772891,0.06807718887340317,161.436152563571,480.9268258266583)" filter="url(#llleaves-blur-3)" opacity="0.32"></path><path d="M128 328H178C206 328 228 350 228 378H178C150 378 128 356 128 328Z " transform="matrix(0.008205592159929073,0.2349774154280347,-0.2349774154280347,0.008205592159929073,259.48643224162885,308.2774460213549)" filter="url(#llleaves-blur-3)" opacity="0.36"></path><path d="M13 142H63C91 142 113 164 113 192H63C35 192 13 170 13 142Z " transform="matrix(0.07378503545946734,0.1922165890135027,-0.1922165890135027,0.07378503545946734,90.45171313130851,142.56825397041828)" filter="url(#llleaves-blur-3)" opacity="0.31"></path><path d="M578 342H628C656 342 678 364 678 392H628C600 392 578 370 578 342Z " transform="matrix(-0.11175718650979448,0.2510107506490707,-0.2510107506490707,-0.11175718650979448,790.3044586163599,250.38013604147818)" filter="url(#llleaves-blur-3)" opacity="0.42"></path><path d="M226 697H276C304 697 326 719 326 747H276C248 747 226 725 226 697Z " transform="matrix(-0.004179059295262091,0.23941814667823424,-0.23941814667823424,-0.004179059295262091,450.0133222671775,658.9378723279866)" filter="url(#llleaves-blur-3)" opacity="0.37"></path><path d="M353 177H403C431 177 453 199 453 227H403C375 227 353 205 353 177Z " transform="matrix(0.016164275328612854,0.23115990675609446,-0.23115990675609446,0.016164275328612854,443.18009820730015,105.57737396091414)" filter="url(#llleaves-blur-3)" opacity="0.35"></path><path d="M129 462H179C207 462 229 484 229 512H179C151 512 129 490 129 462Z " transform="matrix(0.008205592159929073,0.2349774154280347,-0.2349774154280347,0.008205592159929073,291.96520031682564,440.94291925649634)" filter="url(#llleaves-blur-3)" opacity="0.36"></path><path d="M15 30H65C93 30 115 52 115 80H65C37 80 15 58 15 30Z " transform="matrix(-0.18673599760664697,0.2305997524671846,-0.2305997524671846,-0.18673599760664697,89.82082623012722,50.28149595799859)" filter="url(#llleaves-blur-3)" opacity="0.45"></path><path d="M452 700H502C530 700 552 722 552 750H502C474 750 452 728 452 700Z " transform="matrix(-0.043934370991351945,0.24916419945959403,-0.24916419945959403,-0.043934370991351945,704.6990988458643,631.7719908400139)" filter="url(#llleaves-blur-3)" opacity="0.39"></path><path d="M10 615H60C88 615 110 637 110 665H60C32 665 10 643 10 615Z " transform="matrix(0.06807718887340317,0.19771051244772891,-0.19771051244772891,0.06807718887340317,182.4500966341423,584.5679683741582)" filter="url(#llleaves-blur-3)" opacity="0.32"></path><path d="M414 35H464C492 35 514 57 514 85H464C436 85 414 63 414 35Z " transform="matrix(-0.3708340218642134,-0.1889493716781899,0.1889493716781899,-0.3708340218642134,624.7300238443037,169.9225497705329)" opacity="0.64"></path><path d="M335 723H385C413 723 435 745 435 773H385C357 773 335 751 335 723Z " transform="matrix(0.016136357646814464,0.2307606653060346,-0.2307606653060346,0.016136357646814464,551.3964799548903,647.0871483373595)" filter="url(#llleaves-blur-3)" opacity="0.35"></path><path d="M242 268H292C320 268 342 290 342 318H292C264 318 242 296 242 268Z " transform="matrix(1.4581580532370227e-17,0.23813528182203214,-0.23813528182203214,1.4581580532370227e-17,361.7736375738554,223.46449770796661)" filter="url(#llleaves-blur-3)" opacity="0.36"></path><path d="M124 191H174C202 191 224 213 224 241H174C146 241 124 219 124 191Z " transform="matrix(0.008205592159929073,0.2349774154280347,-0.2349774154280347,0.008205592159929073,223.32734869662784,173.3415218089773)" filter="url(#llleaves-blur-3)" opacity="0.36"></path><path d="M239 545H289C317 545 339 567 339 595H289C261 595 239 573 239 545Z " transform="matrix(1.4581580532370227e-17,0.23813528182203214,-0.23813528182203214,1.4581580532370227e-17,424.7371106385583,501.1789035534327)" filter="url(#llleaves-blur-3)" opacity="0.36"></path></g><g fill="none" stroke-width="3" stroke="hsl(231, 100%, 64%)"><path d="M685 34H735C763 34 785 56 785 84H735C707 84 685 62 685 34Z " transform="matrix(-0.01265780969548714,0.2415253969668425,-0.2415253969668425,-0.01265780969548714,758.5534885472267,-117.7743559985955)" filter="url(#llleaves-blur-3)" opacity="0.37"></path><path d="M116 716H166C194 716 216 738 216 766H166C138 766 116 744 116 716Z " transform="matrix(0.016162243378910854,0.23113084852155572,-0.23113084852155572,0.016162243378910854,334.5850263535736,690.6560568016488)" filter="url(#llleaves-blur-3)" opacity="0.35"></path><path d="M474 141H524C552 141 574 163 574 191H524C496 191 474 169 474 141Z " transform="matrix(-0.15721969926581622,0.24209710652089567,-0.24209710652089567,-0.15721969926581622,646.5712420977563,65.23958626117616)" filter="url(#llleaves-blur-3)" opacity="0.44"></path><path d="M581 199H631C659 199 681 221 681 249H631C603 249 581 227 581 199Z " transform="matrix(-0.11175718650979448,0.2510107506490707,-0.2510107506490707,-0.11175718650979448,757.7451928330722,90.64582611863034)" filter="url(#llleaves-blur-3)" opacity="0.42"></path><path d="M241 404H291C319 404 341 426 341 454H291C263 454 241 432 241 404Z " transform="matrix(1.4581580532370227e-17,0.23813528182203214,-0.23813528182203214,1.4581580532370227e-17,393.1600359016518,359.70263298978864)" filter="url(#llleaves-blur-3)" opacity="0.36"></path><path d="M284 34H334C362 34 384 56 384 84H334C306 84 284 62 284 34Z " transform="matrix(-0.38310104799988254,-0.12447707614263002,0.12447707614263002,-0.38310104799988254,454.6116025395456,123.17830526363149)" opacity="0.62"></path><path d="M557 42H607C635 42 657 64 657 92H607C579 92 557 70 557 42Z " transform="matrix(-0.27701740538595454,0.17309968657112484,-0.17309968657112484,-0.27701740538595454,786.7472440695398,-19.511343587813812)" filter="url(#llleaves-blur-2)" opacity="0.50"></path><path d="M353 327H403C431 327 453 349 453 377H403C375 377 353 355 353 327Z " transform="matrix(0.016164275328612854,0.23115990675609446,-0.23115990675609446,0.016164275328612854,477.8540842207143,253.15273266162222)" filter="url(#llleaves-blur-3)" opacity="0.35"></path><path d="M129 591H179C207 591 229 613 229 641H179C151 641 129 619 129 591Z " transform="matrix(0.008205592159929073,0.2349774154280347,-0.2349774154280347,0.008205592159929073,322.2772869070421,568.8843978678655)" filter="url(#llleaves-blur-3)" opacity="0.36"></path></g></svg>